<?xml version="1.0" encoding="UTF-8" standalone="no"?>
<!DOCTYPE svg PUBLIC "-//W3C//DTD SVG 1.1//EN" "http://www.w3.org/Graphics/SVG/1.1/DTD/svg11.dtd">
<svg xmlns="http://www.w3.org/2000/svg" version="1.1" viewBox="0 0 720 708">
<path fill="rgb(255,255,255)" fill-opacity="1.000" d="M 0.00 0.00 Q 360.00 0.00 720.00 0.00 Q 720.00 354.00 720.00 708.00 Q 360.00 708.00 0.00 708.00 Q 0.00 354.00 0.00 0.00 Z M 252.28 36.74 Q 269.05 43.65 284.06 49.94 Q 308.30 60.09 332.29 69.56 Q 332.75 69.75 333.23 69.60 Q 334.65 69.14 333.53 67.93 Q 333.19 67.56 332.74 67.33 Q 311.12 55.88 291.44 45.31 Q 272.38 35.08 251.55 24.43 Q 250.85 24.07 250.14 24.44 Q 239.94 29.36 228.56 34.81 Q 179.81 58.17 129.82 82.11 Q 129.26 82.37 129.24 82.98 Q 128.82 96.16 129.01 110.31 Q 129.02 111.19 129.81 110.81 Q 151.95 100.62 173.94 90.19 Q 212.06 72.09 250.25 54.50 Q 251.76 53.82 251.75 52.16 Q 251.70 43.74 251.80 37.06 Q 251.81 36.56 252.28 36.74 Z M 253.53 89.47 Q 291.69 102.48 332.22 116.16 Q 333.02 116.43 333.54 115.76 Q 334.62 114.29 332.31 113.19 Q 292.80 94.36 252.96 75.59 Q 251.61 74.95 250.26 75.57 Q 223.37 87.96 195.69 99.94 Q 165.07 113.18 134.69 127.19 Q 132.45 128.23 130.29 128.91 Q 129.81 129.06 129.80 129.56 Q 129.58 143.24 129.24 157.86 Q 129.21 159.02 130.25 158.50 Q 135.07 155.88 140.81 153.56 Q 183.79 136.24 226.69 118.44 Q 239.25 113.17 251.56 108.34 Q 252.47 107.98 252.48 107.00 Q 252.59 97.11 253.03 89.81 Q 253.06 89.31 253.53 89.47 Z M 433.19 300.31 Q 439.51 302.71 445.74 304.46 Q 446.61 304.70 446.74 303.80 Q 446.49 302.30 446.50 301.00 Q 446.50 289.25 446.50 277.50 Q 446.51 192.25 446.50 107.00 Q 446.50 104.93 446.68 103.12 Q 446.82 102.10 445.81 102.31 Q 439.41 103.66 433.10 105.30 Q 432.25 105.52 432.25 106.41 Q 432.25 202.75 432.25 298.96 Q 432.25 299.96 433.19 300.31 Z M 454.94 304.81 Q 471.73 309.65 487.53 314.93 Q 488.44 315.23 488.44 314.27 Q 488.48 269.53 489.00 224.50 Q 489.44 185.94 489.50 144.64 Q 489.50 143.22 488.46 142.25 Q 484.87 138.98 480.44 133.81 Q 467.82 119.11 454.59 104.17 Q 453.75 103.23 453.75 104.50 Q 454.16 119.78 454.00 135.50 Q 453.76 136.32 453.75 137.50 Q 453.07 214.88 453.75 292.25 Q 453.78 297.17 453.70 303.01 Q 453.58 304.42 454.94 304.81 Z M 410.44 294.06 Q 416.08 295.32 422.50 297.50 Q 423.50 297.84 423.50 296.78 Q 423.50 203.38 423.50 109.42 Q 423.50 108.14 422.25 108.42 Q 416.74 109.63 410.30 111.20 Q 409.81 111.31 409.76 111.81 Q 409.50 115.09 409.50 119.00 Q 409.60 206.00 409.50 292.89 Q 409.50 293.85 410.44 294.06 Z M 387.94 287.31 Q 393.56 289.47 400.30 290.86 Q 400.75 290.96 400.75 290.50 Q 400.75 202.50 400.75 114.62 Q 400.75 113.89 400.04 114.05 Q 393.74 115.47 388.03 116.91 Q 387.50 117.05 387.50 117.60 Q 387.61 198.50 387.50 278.75 Q 387.49 282.63 387.26 286.29 Q 387.23 287.04 387.94 287.31 Z M 364.76 281.02 Q 370.63 282.39 377.82 284.68 Q 378.69 284.96 378.69 284.04 Q 378.80 202.36 378.75 120.28 Q 378.75 119.41 377.91 119.64 Q 369.83 121.83 364.29 123.66 Q 363.81 123.81 363.81 124.31 Q 363.70 201.42 363.75 279.75 Q 363.75 280.79 364.76 281.02 Z M 340.43 273.57 Q 347.41 275.76 354.06 277.69 Q 354.99 277.96 355.00 276.99 Q 355.56 249.39 355.25 222.25 Q 355.30 203.85 355.25 185.50 Q 355.18 155.87 355.00 126.24 Q 355.00 125.79 354.57 125.92 Q 348.34 127.85 340.69 129.44 Q 340.01 129.58 339.86 130.25 Q 339.50 132.36 339.50 134.50 Q 339.60 203.50 339.50 272.31 Q 339.50 273.28 340.43 273.57 Z M 254.59 142.55 Q 293.90 154.70 332.52 166.60 Q 333.00 166.75 333.44 166.51 Q 334.43 165.97 333.58 164.61 Q 333.31 164.19 332.86 163.98 Q 301.12 149.14 266.31 134.44 Q 259.53 131.57 253.10 128.57 Q 251.77 127.97 250.43 128.53 Q 215.62 142.75 182.06 157.31 Q 156.64 168.35 131.88 178.49 Q 130.58 179.01 130.54 180.41 Q 130.21 194.41 129.99 206.98 Q 129.97 207.94 130.87 207.62 Q 154.62 199.01 177.50 190.50 Q 214.88 176.60 252.09 163.31 Q 253.19 162.92 253.25 161.75 Q 253.62 154.81 253.47 143.40 Q 253.45 142.20 254.59 142.55 Z M 146.80 346.73 Q 172.61 342.19 198.75 337.25 Q 226.51 332.00 254.60 327.41 Q 255.48 327.26 255.51 326.36 Q 255.87 315.92 255.74 301.72 Q 255.73 300.81 256.64 300.87 Q 265.16 301.18 274.50 302.25 Q 282.96 303.22 290.76 303.78 Q 292.56 303.86 293.81 302.56 Q 296.10 300.18 299.00 297.75 Q 299.50 297.33 298.90 297.08 Q 295.82 295.73 292.75 295.00 Q 272.20 290.12 254.48 285.62 Q 254.00 285.50 253.52 285.64 Q 248.47 287.28 241.75 288.75 Q 209.14 295.87 176.75 303.75 Q 160.77 307.71 146.06 310.60 Q 145.56 310.69 145.59 310.19 Q 145.98 304.00 146.27 296.72 Q 146.30 295.94 147.06 295.75 Q 201.11 282.38 254.70 268.31 Q 255.19 268.19 255.19 267.69 Q 255.22 260.53 255.01 253.25 Q 255.00 252.75 255.50 252.82 Q 293.65 257.83 332.06 263.69 Q 334.35 264.04 333.32 262.36 Q 333.06 261.94 332.59 261.79 Q 295.23 249.92 257.50 237.50 Q 254.47 236.30 251.75 237.00 Q 199.08 250.57 147.69 263.64 Q 146.20 264.01 146.23 262.47 Q 146.36 256.40 145.79 250.62 Q 145.68 249.55 146.72 249.26 Q 181.49 239.47 214.50 229.25 Q 232.64 223.63 252.70 217.91 Q 254.18 217.49 254.20 215.95 Q 254.30 206.86 254.25 196.84 Q 254.25 196.11 254.92 196.38 Q 258.37 197.47 262.19 198.31 Q 296.57 205.88 332.48 214.00 Q 333.21 214.15 333.34 213.42 Q 333.91 210.19 332.81 210.19 Q 332.31 210.19 331.85 210.01 Q 309.37 201.45 286.56 192.19 Q 271.33 186.00 254.40 179.52 Q 253.11 179.03 251.81 179.49 Q 222.98 189.97 193.44 200.69 Q 162.27 211.99 131.07 222.65 Q 130.50 222.85 130.50 223.46 Q 130.37 311.42 130.81 397.69 Q 130.82 398.22 131.17 397.82 Q 144.33 382.83 156.61 367.37 Q 157.79 365.89 159.68 365.71 Q 163.27 365.43 169.75 365.50 Q 197.64 365.80 224.75 365.01 Q 225.25 365.00 225.63 364.68 Q 238.44 354.03 247.09 345.40 Q 248.41 344.09 246.58 344.41 Q 195.63 353.38 146.93 361.94 Q 146.44 362.02 146.43 361.53 Q 146.23 354.50 146.31 347.31 Q 146.31 346.81 146.80 346.73 Z M 562.44 381.56 Q 574.10 392.13 585.39 402.54 Q 585.93 403.01 586.20 402.34 Q 590.32 392.98 592.50 384.00 Q 594.47 375.50 594.25 365.75 Q 594.08 349.79 591.75 332.00 Q 586.64 292.91 576.69 254.06 Q 576.17 252.02 575.81 253.81 Q 569.82 284.58 563.19 315.19 Q 556.44 346.36 558.22 376.25 Q 558.25 376.75 558.44 377.21 Q 559.57 378.97 562.44 381.56 Z M 236.50 375.54 Q 235.13 374.79 233.75 374.75 Q 211.79 374.12 190.00 373.75 Q 180.11 373.38 170.25 373.75 Q 169.57 373.79 169.00 373.54 Q 166.29 372.42 164.46 375.27 Q 164.19 375.69 163.84 376.05 Q 144.07 396.45 124.19 417.44 Q 104.66 438.05 85.41 458.07 Q 85.06 458.44 85.55 458.53 Q 92.55 459.86 102.44 461.12 Q 102.94 461.19 103.28 460.82 Q 123.81 439.11 144.44 416.69 Q 153.81 406.50 163.25 396.50 Q 164.29 395.46 164.56 395.00 Q 164.81 394.56 165.20 394.87 Q 176.55 403.78 188.31 413.44 Q 197.81 421.24 207.35 428.21 Q 207.75 428.50 208.10 428.15 Q 265.57 370.54 321.56 315.56 Q 325.50 311.70 328.70 308.12 Q 329.30 307.44 329.95 308.07 Q 382.84 360.06 436.06 412.44 Q 459.44 435.44 483.34 459.23 Q 484.60 460.50 486.39 460.50 Q 541.17 460.55 596.25 461.24 Q 596.75 461.25 597.25 461.23 Q 607.12 460.78 620.46 461.31 Q 621.45 461.35 621.42 460.35 Q 621.21 454.85 620.71 448.75 Q 620.19 447.42 618.56 445.94 Q 554.86 387.86 490.61 327.05 Q 489.24 325.76 487.42 325.28 Q 412.87 305.17 336.81 284.44 Q 334.96 283.93 331.50 284.29 Q 329.69 282.56 329.25 283.00 Q 285.44 326.59 241.31 370.31 Q 238.14 373.44 236.50 375.54 Z M 327.6980 367.0127 A 0.25 0.25 0 0 0 327.4488 366.7618 L 303.5490 366.6784 A 0.25 0.25 0 0 0 303.2981 366.9275 L 303.2021 394.4473 A 0.25 0.25 0 0 0 303.4512 394.6982 L 327.3510 394.7816 A 0.25 0.25 0 0 0 327.6019 394.5325 L 327.6980 367.0127 Z M 336.32 394.57 Q 347.89 394.89 360.26 394.74 Q 361.00 394.74 361.00 394.00 Q 361.00 380.62 361.00 367.25 Q 361.00 366.75 360.50 366.75 Q 348.52 366.80 336.65 366.68 Q 335.57 366.67 335.50 367.75 Q 335.70 369.78 335.69 371.06 Q 335.54 382.16 335.79 394.05 Q 335.81 394.55 336.32 394.57 Z M 361.0677 403.0343 A 0.36 0.36 0 0 0 360.7090 402.6730 L 336.1092 402.5872 A 0.36 0.36 0 0 0 335.7479 402.9459 L 335.6523 430.3457 A 0.36 0.36 0 0 0 336.0110 430.7070 L 360.6108 430.7928 A 0.36 0.36 0 0 0 360.9721 430.4341 L 361.0677 403.0343 Z M 327.61 403.17 A 0.42 0.42 0 0 0 327.19 402.75 L 303.67 402.75 A 0.42 0.42 0 0 0 303.25 403.17 L 303.25 430.47 A 0.42 0.42 0 0 0 303.67 430.89 L 327.19 430.89 A 0.42 0.42 0 0 0 327.61 430.47 L 327.61 403.17 Z M 160.8327 427.2152 A 0.25 0.25 0 0 0 160.5809 426.9669 L 148.2012 427.0534 A 0.25 0.25 0 0 0 147.9530 427.3051 L 148.0473 440.8248 A 0.25 0.25 0 0 0 148.2991 441.0730 L 160.6788 440.9866 A 0.25 0.25 0 0 0 160.9270 440.7349 L 160.8327 427.2152 Z M 177.4670 427.4078 A 0.42 0.42 0 0 0 177.0455 426.9893 L 165.1456 427.0308 A 0.42 0.42 0 0 0 164.7270 427.4523 L 164.7730 440.6322 A 0.42 0.42 0 0 0 165.1945 441.0507 L 177.0944 441.0092 A 0.42 0.42 0 0 0 177.5130 440.5877 L 177.4670 427.4078 Z M 160.9741 445.4626 A 0.46 0.46 0 0 0 160.5157 445.0010 L 148.4958 444.9591 A 0.46 0.46 0 0 0 148.0342 445.4174 L 147.9859 459.2574 A 0.46 0.46 0 0 0 148.4443 459.7190 L 160.4642 459.7609 A 0.46 0.46 0 0 0 160.9258 459.3026 L 160.9741 445.4626 Z M 177.3810 445.2058 A 0.25 0.25 0 0 0 177.1292 444.9576 L 164.9295 445.0428 A 0.25 0.25 0 0 0 164.6813 445.2945 L 164.7790 459.2942 A 0.25 0.25 0 0 0 165.0308 459.5424 L 177.2305 459.4572 A 0.25 0.25 0 0 0 177.4787 459.2055 L 177.3810 445.2058 Z M 113.21 578.55 Q 132.94 579.33 152.25 578.25 Q 167.54 577.40 178.94 568.94 Q 186.40 563.48 190.19 553.94 Q 192.67 547.90 193.00 541.25 Q 193.54 534.73 192.50 527.50 Q 190.45 513.19 178.69 504.31 Q 174.65 501.03 169.19 499.06 Q 160.64 495.70 150.75 495.25 Q 134.44 494.51 113.95 495.26 Q 111.93 495.31 112.50 497.25 Q 112.76 498.52 112.75 500.25 Q 112.63 539.25 112.75 578.08 Q 112.75 578.54 113.21 578.55 Z M 243.50 495.25 A 0.25 0.25 0 0 0 243.25 495.00 L 218.75 495.00 A 0.25 0.25 0 0 0 218.50 495.25 L 218.50 578.39 A 0.25 0.25 0 0 0 218.75 578.64 L 243.25 578.64 A 0.25 0.25 0 0 0 243.50 578.39 L 243.50 495.25 Z M 310.77 551.93 Q 310.43 553.00 310.06 551.94 Q 307.62 545.42 305.75 538.75 Q 305.01 536.11 303.56 533.44 Q 302.05 530.65 301.74 527.81 Q 301.69 527.31 301.48 526.86 Q 300.01 522.70 298.75 518.50 Q 295.16 506.51 290.87 495.40 Q 290.74 495.00 290.32 495.00 Q 279.38 494.94 266.49 495.26 Q 265.19 495.29 265.44 496.56 Q 266.09 499.54 267.56 501.94 Q 268.79 504.64 269.81 507.44 Q 282.77 542.87 296.31 577.44 Q 296.74 578.55 297.92 578.56 Q 310.16 578.70 321.44 578.69 Q 321.94 578.69 322.12 578.22 Q 328.68 560.53 335.81 542.56 Q 345.42 518.37 354.02 495.78 Q 354.19 495.31 353.69 495.31 Q 343.69 495.26 331.23 494.95 Q 329.19 494.90 328.57 496.84 Q 319.78 523.91 310.77 551.93 Z M 400.50 495.53 A 0.43 0.43 0 0 0 400.07 495.10 L 376.21 495.10 A 0.43 0.43 0 0 0 375.78 495.53 L 375.78 578.31 A 0.43 0.43 0 0 0 376.21 578.74 L 400.07 578.74 A 0.43 0.43 0 0 0 400.50 578.31 L 400.50 495.53 Z M 452.67 532.91 Q 456.31 536.91 460.06 541.94 Q 470.42 555.82 480.94 569.56 Q 485.04 575.13 488.21 578.33 Q 488.56 578.69 489.06 578.69 Q 498.14 578.80 507.75 578.75 Q 508.50 578.75 508.50 578.00 Q 508.55 536.03 508.44 495.56 Q 508.44 495.06 507.94 495.06 Q 497.75 494.99 486.98 495.24 Q 486.25 495.26 486.25 496.00 Q 486.25 519.00 486.25 541.33 Q 486.25 542.16 485.75 541.50 Q 468.60 518.86 451.69 496.06 Q 450.92 495.03 449.63 495.01 Q 438.22 494.84 430.21 495.24 Q 429.75 495.26 429.75 495.72 Q 429.75 536.88 429.75 577.43 Q 429.75 578.45 430.77 578.49 Q 441.29 578.94 451.81 578.69 Q 452.54 578.67 452.52 577.94 Q 452.39 568.69 452.50 561.75 Q 452.73 547.08 452.32 533.06 Q 452.31 532.56 452.67 532.91 Z M 563.56 559.19 Q 563.54 552.80 563.32 546.81 Q 563.29 545.92 564.18 545.93 Q 583.50 546.19 601.81 545.82 Q 602.31 545.81 602.33 545.31 Q 602.64 537.49 602.50 529.00 Q 602.47 527.49 601.25 527.50 Q 582.28 527.68 564.00 527.26 Q 563.50 527.25 563.46 526.75 Q 563.06 521.94 563.25 516.16 Q 563.32 513.98 565.50 514.00 Q 585.61 514.14 605.06 513.82 Q 605.56 513.81 605.59 513.31 Q 606.08 504.18 605.53 495.75 Q 605.50 495.25 605.00 495.24 Q 572.64 494.67 539.47 495.25 Q 538.25 495.28 538.25 496.50 Q 538.30 537.23 538.19 577.94 Q 538.19 578.75 539.00 578.75 Q 573.74 578.65 607.18 578.69 Q 607.43 578.69 607.44 578.44 Q 607.59 569.25 607.45 560.56 Q 607.44 560.06 606.94 560.05 Q 585.40 559.61 564.06 559.69 Q 563.56 559.69 563.56 559.19 Z M 209.81 644.81 Q 225.27 644.70 241.75 644.75 Q 242.25 644.75 242.25 645.25 Q 242.37 658.17 241.98 669.45 Q 241.95 670.50 243.00 670.50 Q 245.88 670.50 248.78 670.50 Q 250.28 670.50 250.25 669.00 Q 249.71 640.75 250.18 613.06 Q 250.19 612.56 249.69 612.53 Q 244.74 612.24 242.55 612.71 Q 242.06 612.81 242.07 613.31 Q 242.35 625.19 242.25 637.58 Q 242.25 638.25 241.57 638.25 Q 226.00 638.25 210.75 638.25 Q 209.55 638.25 209.51 637.05 Q 209.05 623.78 209.42 613.31 Q 209.44 612.81 208.95 612.70 Q 207.10 612.28 202.67 612.52 Q 201.50 612.58 201.50 613.75 Q 201.37 639.63 201.50 665.50 Q 201.51 667.66 201.25 669.25 Q 200.97 670.40 202.15 670.44 Q 204.79 670.54 208.65 670.49 Q 209.45 670.48 209.43 669.68 Q 209.22 657.54 209.31 645.31 Q 209.31 644.81 209.81 644.81 Z M 337.3498 641.7659 A 30.35 29.87 0.2 0 0 307.1043 611.7902 A 30.35 29.87 0.2 0 0 276.6502 641.5541 A 30.35 29.87 0.2 0 0 306.8957 671.5298 A 30.35 29.87 0.2 0 0 337.3498 641.7659 Z M 372.72 630.36 Q 381.95 645.08 390.94 660.06 Q 392.37 662.45 394.30 663.09 Q 396.03 663.71 396.97 662.14 Q 407.15 645.14 417.19 628.69 Q 417.64 627.94 417.70 628.81 Q 417.85 632.30 417.81 635.81 Q 417.63 653.49 418.05 670.19 Q 418.06 670.69 418.56 670.66 Q 421.55 670.46 424.90 670.44 Q 425.52 670.43 425.51 669.82 Q 425.13 641.74 425.50 614.25 Q 425.52 612.50 423.77 612.50 Q 421.50 612.50 419.39 612.50 Q 418.59 612.50 418.19 613.19 Q 409.02 628.47 400.56 643.31 Q 397.97 647.86 395.02 652.13 Q 394.43 652.92 393.94 652.06 Q 383.16 633.26 371.83 614.86 Q 371.56 614.44 371.45 613.95 Q 370.99 611.95 367.75 612.50 Q 364.00 613.14 364.00 613.25 Q 364.49 642.98 364.07 669.94 Q 364.06 670.44 364.56 670.47 Q 369.51 670.76 371.70 670.29 Q 372.19 670.19 372.19 669.69 Q 372.28 650.35 372.25 630.50 Q 372.25 629.62 372.72 630.36 Z M 465.06 620.54 Q 480.23 619.89 495.44 620.42 Q 495.94 620.44 496.09 619.96 Q 496.77 617.89 496.49 614.11 Q 496.37 612.50 494.75 612.50 Q 475.88 612.50 457.37 612.50 Q 456.50 612.50 456.50 613.37 Q 456.50 642.00 456.50 669.63 Q 456.50 670.50 457.37 670.50 Q 477.50 670.50 497.00 670.50 Q 497.90 670.50 497.85 669.60 Q 497.66 666.13 497.81 663.32 Q 497.84 662.75 497.27 662.75 Q 481.25 662.75 465.25 662.75 Q 464.50 662.75 464.50 662.00 Q 464.50 653.63 464.50 645.75 Q 464.50 644.96 465.29 644.94 Q 479.07 644.66 492.94 644.93 Q 493.44 644.94 493.45 644.44 Q 493.50 641.75 493.57 638.37 Q 493.58 637.55 492.81 637.81 Q 491.18 638.27 489.25 638.25 Q 477.13 638.15 465.04 638.25 Q 464.43 638.25 464.44 637.64 Q 464.50 628.88 464.56 621.06 Q 464.56 620.56 465.06 620.54 Z"/>
<path fill="rgb(26,39,109)" fill-opacity="1.000" d="M 250.14 24.44 Q 250.85 24.07 251.55 24.43 Q 272.38 35.08 291.44 45.31 Q 311.12 55.88 332.74 67.33 Q 333.19 67.56 333.53 67.93 Q 334.65 69.14 333.23 69.60 Q 332.75 69.75 332.29 69.56 Q 308.30 60.09 284.06 49.94 Q 269.05 43.65 252.28 36.74 Q 251.81 36.56 251.80 37.06 Q 251.70 43.74 251.75 52.16 Q 251.76 53.82 250.25 54.50 Q 212.06 72.09 173.94 90.19 Q 151.95 100.62 129.81 110.81 Q 129.02 111.19 129.01 110.31 Q 128.82 96.16 129.24 82.98 Q 129.26 82.37 129.82 82.11 Q 179.81 58.17 228.56 34.81 Q 239.94 29.36 250.14 24.44 Z"/>
<path fill="rgb(26,39,109)" fill-opacity="1.000" d="M 250.26 75.57 Q 251.61 74.95 252.96 75.59 Q 292.80 94.36 332.31 113.19 Q 334.62 114.29 333.54 115.76 Q 333.02 116.43 332.22 116.16 Q 291.69 102.48 253.53 89.47 Q 253.06 89.31 253.03 89.81 Q 252.59 97.11 252.48 107.00 Q 252.47 107.98 251.56 108.34 Q 239.25 113.17 226.69 118.44 Q 183.79 136.24 140.81 153.56 Q 135.07 155.88 130.25 158.50 Q 129.21 159.02 129.24 157.86 Q 129.58 143.24 129.80 129.56 Q 129.81 129.06 130.29 128.91 Q 132.45 128.23 134.69 127.19 Q 165.07 113.18 195.69 99.94 Q 223.37 87.96 250.26 75.57 Z"/>
<path fill="rgb(28,40,105)" fill-opacity="1.000" d="M 445.81 102.31 Q 446.82 102.10 446.68 103.12 Q 446.50 104.93 446.50 107.00 Q 446.51 192.25 446.50 277.50 Q 446.50 289.25 446.50 301.00 Q 446.49 302.30 446.74 303.80 Q 446.61 304.70 445.74 304.46 Q 439.51 302.71 433.19 300.31 Q 432.25 299.96 432.25 298.96 Q 432.25 202.75 432.25 106.41 Q 432.25 105.52 433.10 105.30 Q 439.41 103.66 445.81 102.31 Z"/>
<path fill="rgb(27,40,111)" fill-opacity="1.000" d="M 454.59 104.17 Q 467.82 119.11 480.44 133.81 Q 484.87 138.98 488.46 142.25 Q 489.50 143.22 489.50 144.64 Q 489.44 185.94 489.00 224.50 Q 488.48 269.53 488.44 314.27 Q 488.44 315.23 487.53 314.93 Q 471.73 309.65 454.94 304.81 Q 453.58 304.42 453.70 303.01 Q 453.78 297.17 453.75 292.25 Q 453.07 214.88 453.75 137.50 Q 453.76 136.32 454.00 135.50 Q 454.16 119.78 453.75 104.50 Q 453.75 103.23 454.59 104.17 Z"/>
<path fill="rgb(28,40,105)" fill-opacity="1.000" d="M 422.25 108.42 Q 423.50 108.14 423.50 109.42 Q 423.50 203.38 423.50 296.78 Q 423.50 297.84 422.50 297.50 Q 416.08 295.32 410.44 294.06 Q 409.50 293.85 409.50 292.89 Q 409.60 206.00 409.50 119.00 Q 409.50 115.09 409.76 111.81 Q 409.81 111.31 410.30 111.20 Q 416.74 109.63 422.25 108.42 Z"/>
<path fill="rgb(28,40,105)" fill-opacity="1.000" d="M 400.75 114.62 Q 400.75 202.50 400.75 290.50 Q 400.75 290.96 400.30 290.86 Q 393.56 289.47 387.94 287.31 Q 387.23 287.04 387.26 286.29 Q 387.49 282.63 387.50 278.75 Q 387.61 198.50 387.50 117.60 Q 387.50 117.05 388.03 116.91 Q 393.74 115.47 400.04 114.05 Q 400.75 113.89 400.75 114.62 Z"/>
<path fill="rgb(28,40,105)" fill-opacity="1.000" d="M 378.75 120.28 Q 378.80 202.36 378.69 284.04 Q 378.69 284.96 377.82 284.68 Q 370.63 282.39 364.76 281.02 Q 363.75 280.79 363.75 279.75 Q 363.70 201.42 363.81 124.31 Q 363.81 123.81 364.29 123.66 Q 369.83 121.83 377.91 119.64 Q 378.75 119.41 378.75 120.28 Z"/>
<path fill="rgb(28,40,105)" fill-opacity="1.000" d="M 354.57 125.92 Q 355.00 125.79 355.00 126.24 Q 355.18 155.87 355.25 185.50 Q 355.30 203.85 355.25 222.25 Q 355.56 249.39 355.00 276.99 Q 354.99 277.96 354.06 277.69 Q 347.41 275.76 340.43 273.57 Q 339.50 273.28 339.50 272.31 Q 339.60 203.50 339.50 134.50 Q 339.50 132.36 339.86 130.25 Q 340.01 129.58 340.69 129.44 Q 348.34 127.85 354.57 125.92 Z"/>
<path fill="rgb(26,39,109)" fill-opacity="1.000" d="M 253.10 128.57 Q 259.53 131.57 266.31 134.44 Q 301.12 149.14 332.86 163.98 Q 333.31 164.19 333.58 164.61 Q 334.43 165.97 333.44 166.51 Q 333.00 166.75 332.52 166.60 Q 293.90 154.70 254.59 142.55 Q 253.45 142.20 253.47 143.40 Q 253.62 154.81 253.25 161.75 Q 253.19 162.92 252.09 163.31 Q 214.88 176.60 177.50 190.50 Q 154.62 199.01 130.87 207.62 Q 129.97 207.94 129.99 206.98 Q 130.21 194.41 130.54 180.41 Q 130.58 179.01 131.88 178.49 Q 156.64 168.35 182.06 157.31 Q 215.62 142.75 250.43 128.53 Q 251.77 127.97 253.10 128.57 Z"/>
<path fill="rgb(26,39,109)" fill-opacity="1.000" d="M 251.81 179.49 Q 253.11 179.03 254.40 179.52 Q 271.33 186.00 286.56 192.19 Q 309.37 201.45 331.85 210.01 Q 332.31 210.19 332.81 210.19 Q 333.91 210.19 333.34 213.42 Q 333.21 214.15 332.48 214.00 Q 296.57 205.88 262.19 198.31 Q 258.37 197.47 254.92 196.38 Q 254.25 196.11 254.25 196.84 Q 254.30 206.86 254.20 215.95 Q 254.18 217.49 252.70 217.91 Q 232.64 223.63 214.50 229.25 Q 181.49 239.47 146.72 249.26 Q 145.68 249.55 145.79 250.62 Q 146.36 256.40 146.23 262.47 Q 146.20 264.01 147.69 263.64 Q 199.08 250.57 251.75 237.00 Q 254.47 236.30 257.50 237.50 Q 295.23 249.92 332.59 261.79 Q 333.06 261.94 333.32 262.36 Q 334.35 264.04 332.06 263.69 Q 293.65 257.83 255.50 252.82 Q 255.00 252.75 255.01 253.25 Q 255.22 260.53 255.19 267.69 Q 255.19 268.19 254.70 268.31 Q 201.11 282.38 147.06 295.75 Q 146.30 295.94 146.27 296.72 Q 145.98 304.00 145.59 310.19 Q 145.56 310.69 146.06 310.60 Q 160.77 307.71 176.75 303.75 Q 209.14 295.87 241.75 288.75 Q 248.47 287.28 253.52 285.64 Q 254.00 285.50 254.48 285.62 Q 272.20 290.12 292.75 295.00 Q 295.82 295.73 298.90 297.08 Q 299.50 297.33 299.00 297.75 Q 296.10 300.18 293.81 302.56 Q 292.56 303.86 290.76 303.78 Q 282.96 303.22 274.50 302.25 Q 265.16 301.18 256.64 300.87 Q 255.73 300.81 255.74 301.72 Q 255.87 315.92 255.51 326.36 Q 255.48 327.26 254.60 327.41 Q 226.51 332.00 198.75 337.25 Q 172.61 342.19 146.80 346.73 Q 146.31 346.81 146.31 347.31 Q 146.23 354.50 146.43 361.53 Q 146.44 362.02 146.93 361.94 Q 195.63 353.38 246.58 344.41 Q 248.41 344.09 247.09 345.40 Q 238.44 354.03 225.63 364.68 Q 225.25 365.00 224.75 365.01 Q 197.64 365.80 169.75 365.50 Q 163.27 365.43 159.68 365.71 Q 157.79 365.89 156.61 367.37 Q 144.33 382.83 131.17 397.82 Q 130.82 398.22 130.81 397.69 Q 130.37 311.42 130.50 223.46 Q 130.50 222.85 131.07 222.65 Q 162.27 211.99 193.44 200.69 Q 222.98 189.97 251.81 179.49 Z"/>
<path fill="rgb(3,152,78)" fill-opacity="1.000" d="M 576.69 254.06 Q 586.64 292.91 591.75 332.00 Q 594.08 349.79 594.25 365.75 Q 594.47 375.50 592.50 384.00 Q 590.32 392.98 586.20 402.34 Q 585.93 403.01 585.39 402.54 Q 574.10 392.13 562.44 381.56 Q 559.57 378.97 558.44 377.21 Q 558.25 376.75 558.22 376.25 Q 556.44 346.36 563.19 315.19 Q 569.82 284.58 575.81 253.81 Q 576.17 252.02 576.69 254.06 Z"/>
<path fill="rgb(0,0,0)" fill-opacity="1.000" d="M 331.50 284.29 Q 333.50 286.79 335.94 289.31 Q 363.30 317.76 391.81 345.94 Q 415.10 368.95 437.22 392.32 Q 437.56 392.69 437.93 393.03 Q 447.53 402.16 458.69 413.81 Q 471.66 427.21 483.94 439.56 Q 487.39 443.04 490.73 445.82 Q 492.81 447.48 495.47 447.51 Q 528.41 447.71 562.25 447.75 Q 588.41 447.78 613.94 448.43 Q 614.44 448.44 614.93 448.34 Q 617.45 447.85 620.71 448.75 Q 621.21 454.85 621.42 460.35 Q 621.45 461.35 620.46 461.31 Q 607.12 460.78 597.25 461.23 Q 596.75 461.25 596.25 461.24 Q 541.17 460.55 486.39 460.50 Q 484.60 460.50 483.34 459.23 Q 459.44 435.44 436.06 412.44 Q 382.84 360.06 329.95 308.07 Q 329.30 307.44 328.70 308.12 Q 325.50 311.70 321.56 315.56 Q 265.57 370.54 208.10 428.15 Q 207.75 428.50 207.35 428.21 Q 197.81 421.24 188.31 413.44 Q 176.55 403.78 165.20 394.87 Q 164.81 394.56 164.56 395.00 Q 164.29 395.46 163.25 396.50 Q 153.81 406.50 144.44 416.69 Q 123.81 439.11 103.28 460.82 Q 102.94 461.19 102.44 461.12 Q 92.55 459.86 85.55 458.53 Q 85.06 458.44 85.41 458.07 Q 104.66 438.05 124.19 417.44 Q 144.07 396.45 163.84 376.05 Q 164.19 375.69 164.46 375.27 Q 166.29 372.42 169.00 373.54 Q 169.93 376.83 173.19 379.56 Q 189.49 393.23 203.88 406.51 Q 204.43 407.00 204.92 406.46 Q 209.24 402.08 214.75 397.25 Q 222.92 389.65 230.31 382.31 Q 233.89 378.77 236.50 375.54 Q 238.14 373.44 241.31 370.31 Q 285.44 326.59 329.25 283.00 Q 329.69 282.56 331.50 284.29 Z"/>
<path fill="rgb(9,147,172)" fill-opacity="1.000" d="M 331.50 284.29 Q 334.96 283.93 336.81 284.44 Q 412.87 305.17 487.42 325.28 Q 489.24 325.76 490.61 327.05 Q 554.86 387.86 618.56 445.94 Q 620.19 447.42 620.71 448.75 Q 617.45 447.85 614.93 448.34 Q 614.44 448.44 613.94 448.43 Q 588.41 447.78 562.25 447.75 Q 528.41 447.71 495.47 447.51 Q 492.81 447.48 490.73 445.82 Q 487.39 443.04 483.94 439.56 Q 471.66 427.21 458.69 413.81 Q 447.53 402.16 437.93 393.03 Q 437.56 392.69 437.22 392.32 Q 415.10 368.95 391.81 345.94 Q 363.30 317.76 335.94 289.31 Q 333.50 286.79 331.50 284.29 Z"/>
<rect fill="rgb(0,0,0)" fill-opacity="1.000" x="-12.20" y="-14.01" width="24.40" height="28.02" rx="0.25" transform="translate(315.45,380.73) rotate(0.2)"/>
<path fill="rgb(0,0,0)" fill-opacity="1.000" d="M 336.65 366.68 Q 348.52 366.80 360.50 366.75 Q 361.00 366.75 361.00 367.25 Q 361.00 380.62 361.00 394.00 Q 361.00 394.74 360.26 394.74 Q 347.89 394.89 336.32 394.57 Q 335.81 394.55 335.79 394.05 Q 335.54 382.16 335.69 371.06 Q 335.70 369.78 335.50 367.75 Q 335.57 366.67 336.65 366.68 Z"/>
<path fill="rgb(13,149,176)" fill-opacity="1.000" d="M 169.00 373.54 Q 169.57 373.79 170.25 373.75 Q 180.11 373.38 190.00 373.75 Q 211.79 374.12 233.75 374.75 Q 235.13 374.79 236.50 375.54 Q 233.89 378.77 230.31 382.31 Q 222.92 389.65 214.75 397.25 Q 209.24 402.08 204.92 406.46 Q 204.43 407.00 203.88 406.51 Q 189.49 393.23 173.19 379.56 Q 169.93 376.83 169.00 373.54 Z"/>
<rect fill="rgb(0,0,0)" fill-opacity="1.000" x="-12.66" y="-14.06" width="25.32" height="28.12" rx="0.36" transform="translate(348.36,416.69) rotate(0.2)"/>
<rect fill="rgb(0,0,0)" fill-opacity="1.000" x="-12.18" y="-14.07" width="24.36" height="28.14" rx="0.42" transform="translate(315.43,416.82) rotate(0.0)"/>
<rect fill="rgb(0,0,0)" fill-opacity="1.000" x="-6.44" y="-7.01" width="12.88" height="14.02" rx="0.25" transform="translate(154.44,434.02) rotate(-0.4)"/>
<rect fill="rgb(0,0,0)" fill-opacity="1.000" x="-6.37" y="-7.01" width="12.74" height="14.02" rx="0.42" transform="translate(171.12,434.02) rotate(-0.2)"/>
<rect fill="rgb(0,0,0)" fill-opacity="1.000" x="-6.47" y="-7.38" width="12.94" height="14.76" rx="0.46" transform="translate(154.48,452.36) rotate(0.2)"/>
<rect fill="rgb(0,0,0)" fill-opacity="1.000" x="-6.35" y="-7.25" width="12.70" height="14.50" rx="0.25" transform="translate(171.08,452.25) rotate(-0.4)"/>
<path fill="rgb(90,90,90)" fill-opacity="1.000" d="M 150.75 495.25 Q 160.64 495.70 169.19 499.06 Q 174.65 501.03 178.69 504.31 Q 190.45 513.19 192.50 527.50 Q 193.54 534.73 193.00 541.25 Q 192.67 547.90 190.19 553.94 Q 186.40 563.48 178.94 568.94 Q 167.54 577.40 152.25 578.25 Q 132.94 579.33 113.21 578.55 Q 112.75 578.54 112.75 578.08 Q 112.63 539.25 112.75 500.25 Q 112.76 498.52 112.50 497.25 Q 111.93 495.31 113.95 495.26 Q 134.44 494.51 150.75 495.25 Z M 141.94 559.56 Q 151.30 560.44 158.44 556.69 Q 166.34 552.58 168.19 543.44 Q 169.69 537.82 168.19 530.81 Q 166.52 523.02 160.82 518.38 Q 160.44 518.06 160.00 517.82 Q 150.80 512.86 137.81 514.50 Q 137.31 514.56 137.30 515.06 Q 137.02 536.99 137.50 559.20 Q 137.52 559.96 138.25 559.75 Q 139.75 559.36 141.94 559.56 Z"/>
<rect fill="rgb(90,90,90)" fill-opacity="1.000" x="-12.50" y="-41.82" width="25.00" height="83.64" rx="0.25" transform="translate(231.00,536.82) rotate(0.0)"/>
<path fill="rgb(90,90,90)" fill-opacity="1.000" d="M 290.32 495.00 Q 290.74 495.00 290.87 495.40 Q 295.16 506.51 298.75 518.50 Q 300.01 522.70 301.48 526.86 Q 301.69 527.31 301.74 527.81 Q 302.05 530.65 303.56 533.44 Q 305.01 536.11 305.75 538.75 Q 307.62 545.42 310.06 551.94 Q 310.43 553.00 310.77 551.93 Q 319.78 523.91 328.57 496.84 Q 329.19 494.90 331.23 494.95 Q 343.69 495.26 353.69 495.31 Q 354.19 495.31 354.02 495.78 Q 345.42 518.37 335.81 542.56 Q 328.68 560.53 322.12 578.22 Q 321.94 578.69 321.44 578.69 Q 310.16 578.70 297.92 578.56 Q 296.74 578.55 296.31 577.44 Q 282.77 542.87 269.81 507.44 Q 268.79 504.64 267.56 501.94 Q 266.09 499.54 265.44 496.56 Q 265.19 495.29 266.49 495.26 Q 279.38 494.94 290.32 495.00 Z"/>
<rect fill="rgb(90,90,90)" fill-opacity="1.000" x="-12.36" y="-41.82" width="24.72" height="83.64" rx="0.43" transform="translate(388.14,536.92) rotate(0.0)"/>
<path fill="rgb(90,90,90)" fill-opacity="1.000" d="M 449.63 495.01 Q 450.92 495.03 451.69 496.06 Q 468.60 518.86 485.75 541.50 Q 486.25 542.16 486.25 541.33 Q 486.25 519.00 486.25 496.00 Q 486.25 495.26 486.98 495.24 Q 497.75 494.99 507.94 495.06 Q 508.44 495.06 508.44 495.56 Q 508.55 536.03 508.50 578.00 Q 508.50 578.75 507.75 578.75 Q 498.14 578.80 489.06 578.69 Q 488.56 578.69 488.21 578.33 Q 485.04 575.13 480.94 569.56 Q 470.42 555.82 460.06 541.94 Q 456.31 536.91 452.67 532.91 Q 452.31 532.56 452.32 533.06 Q 452.73 547.08 452.50 561.75 Q 452.39 568.69 452.52 577.94 Q 452.54 578.67 451.81 578.69 Q 441.29 578.94 430.77 578.49 Q 429.75 578.45 429.75 577.43 Q 429.75 536.88 429.75 495.72 Q 429.75 495.26 430.21 495.24 Q 438.22 494.84 449.63 495.01 Z"/>
<path fill="rgb(90,90,90)" fill-opacity="1.000" d="M 605.53 495.75 Q 606.08 504.18 605.59 513.31 Q 605.56 513.81 605.06 513.82 Q 585.61 514.14 565.50 514.00 Q 563.32 513.98 563.25 516.16 Q 563.06 521.94 563.46 526.75 Q 563.50 527.25 564.00 527.26 Q 582.28 527.68 601.25 527.50 Q 602.47 527.49 602.50 529.00 Q 602.64 537.49 602.33 545.31 Q 602.31 545.81 601.81 545.82 Q 583.50 546.19 564.18 545.93 Q 563.29 545.92 563.32 546.81 Q 563.54 552.80 563.56 559.19 Q 563.56 559.69 564.06 559.69 Q 585.40 559.61 606.94 560.05 Q 607.44 560.06 607.45 560.56 Q 607.59 569.25 607.44 578.44 Q 607.43 578.69 607.18 578.69 Q 573.74 578.65 539.00 578.75 Q 538.19 578.75 538.19 577.94 Q 538.30 537.23 538.25 496.50 Q 538.25 495.28 539.47 495.25 Q 572.64 494.67 605.00 495.24 Q 605.50 495.25 605.53 495.75 Z"/>
<path fill="rgb(255,255,255)" fill-opacity="1.000" d="M 160.82 518.38 Q 166.52 523.02 168.19 530.81 Q 169.69 537.82 168.19 543.44 Q 166.34 552.58 158.44 556.69 Q 151.30 560.44 141.94 559.56 Q 139.75 559.36 138.25 559.75 Q 137.52 559.96 137.50 559.20 Q 137.02 536.99 137.30 515.06 Q 137.31 514.56 137.81 514.50 Q 150.80 512.86 160.00 517.82 Q 160.44 518.06 160.82 518.38 Z"/>
<path fill="rgb(92,92,92)" fill-opacity="1.000" d="M 202.67 612.52 Q 207.10 612.28 208.95 612.70 Q 209.44 612.81 209.42 613.31 Q 209.05 623.78 209.51 637.05 Q 209.55 638.25 210.75 638.25 Q 226.00 638.25 241.57 638.25 Q 242.25 638.25 242.25 637.58 Q 242.35 625.19 242.07 613.31 Q 242.06 612.81 242.55 612.71 Q 244.74 612.24 249.69 612.53 Q 250.19 612.56 250.18 613.06 Q 249.71 640.75 250.25 669.00 Q 250.28 670.50 248.78 670.50 Q 245.88 670.50 243.00 670.50 Q 241.95 670.50 241.98 669.45 Q 242.37 658.17 242.25 645.25 Q 242.25 644.75 241.75 644.75 Q 225.27 644.70 209.81 644.81 Q 209.31 644.81 209.31 645.31 Q 209.22 657.54 209.43 669.68 Q 209.45 670.48 208.65 670.49 Q 204.79 670.54 202.15 670.44 Q 200.97 670.40 201.25 669.25 Q 201.51 667.66 201.50 665.50 Q 201.37 639.63 201.50 613.75 Q 201.50 612.58 202.67 612.52 Z"/>
<path fill="rgb(92,92,92)" fill-opacity="1.000" d="M 337.3498 641.7659 A 30.35 29.87 0.2 0 1 306.8957 671.5298 A 30.35 29.87 0.2 0 1 276.6502 641.5541 A 30.35 29.87 0.2 0 1 307.1043 611.7902 A 30.35 29.87 0.2 0 1 337.3498 641.7659 Z M 328.8752 640.0764 A 20.39 20.39 0 0 0 308.5565 619.6154 L 305.5565 619.6049 A 20.39 20.39 0 0 0 285.0954 639.9236 L 285.0848 642.9636 A 20.39 20.39 0 0 0 305.4035 663.4246 L 308.4035 663.4351 A 20.39 20.39 0 0 0 328.8646 643.1164 L 328.8752 640.0764 Z"/>
<path fill="rgb(92,92,92)" fill-opacity="1.000" d="M 367.75 612.50 Q 370.99 611.95 371.45 613.95 Q 371.56 614.44 371.83 614.86 Q 383.16 633.26 393.94 652.06 Q 394.43 652.92 395.02 652.13 Q 397.97 647.86 400.56 643.31 Q 409.02 628.47 418.19 613.19 Q 418.59 612.50 419.39 612.50 Q 421.50 612.50 423.77 612.50 Q 425.52 612.50 425.50 614.25 Q 425.13 641.74 425.51 669.82 Q 425.52 670.43 424.90 670.44 Q 421.55 670.46 418.56 670.66 Q 418.06 670.69 418.05 670.19 Q 417.63 653.49 417.81 635.81 Q 417.85 632.30 417.70 628.81 Q 417.64 627.94 417.19 628.69 Q 407.15 645.14 396.97 662.14 Q 396.03 663.71 394.30 663.09 Q 392.37 662.45 390.94 660.06 Q 381.95 645.08 372.72 630.36 Q 372.25 629.62 372.25 630.50 Q 372.28 650.35 372.19 669.69 Q 372.19 670.19 371.70 670.29 Q 369.51 670.76 364.56 670.47 Q 364.06 670.44 364.07 669.94 Q 364.49 642.98 364.00 613.25 Q 364.00 613.14 367.75 612.50 Z"/>
<path fill="rgb(90,90,90)" fill-opacity="1.000" d="M 457.37 612.50 Q 475.88 612.50 494.75 612.50 Q 496.37 612.50 496.49 614.11 Q 496.77 617.89 496.09 619.96 Q 495.94 620.44 495.44 620.42 Q 480.23 619.89 465.06 620.54 Q 464.56 620.56 464.56 621.06 Q 464.50 628.88 464.44 637.64 Q 464.43 638.25 465.04 638.25 Q 477.13 638.15 489.25 638.25 Q 491.18 638.27 492.81 637.81 Q 493.58 637.55 493.57 638.37 Q 493.50 641.75 493.45 644.44 Q 493.44 644.94 492.94 644.93 Q 479.07 644.66 465.29 644.94 Q 464.50 644.96 464.50 645.75 Q 464.50 653.63 464.50 662.00 Q 464.50 662.75 465.25 662.75 Q 481.25 662.75 497.27 662.75 Q 497.84 662.75 497.81 663.32 Q 497.66 666.13 497.85 669.60 Q 497.90 670.50 497.00 670.50 Q 477.50 670.50 457.37 670.50 Q 456.50 670.50 456.50 669.63 Q 456.50 642.00 456.50 613.37 Q 456.50 612.50 457.37 612.50 Z"/>
<rect fill="rgb(255,255,255)" fill-opacity="1.000" x="-21.89" y="-21.91" width="43.78" height="43.82" rx="20.39" transform="translate(306.98,641.52) rotate(0.2)"/>
</svg>